<?xml version="1.0" encoding="UTF-8"?>
<svg version="1.1" xmlns="http://www.w3.org/2000/svg" width="512" height="512">
<path d="M0 0 C24.81747839 8.66355609 40.0505015 30.07160835 51.51464844 52.68554688 C52.48378556 54.71388613 53.41199102 56.75284955 54.3125 58.8125 C54.59585205 59.45662842 54.8792041 60.10075684 55.17114258 60.7644043 C56.50725256 63.93277853 57.46880618 66.84880401 58.23828125 70.22265625 C59.76899919 76.81990914 59.76899919 76.81990914 64.171875 81.73632812 C68.05700523 83.88803803 72.11947826 85.54652609 76.2265625 87.22265625 C91.71372523 93.58106485 105.25669867 105.14240081 117.375 116.4375 C118.13941406 117.13617188 118.90382813 117.83484375 119.69140625 118.5546875 C134.40265446 132.5239771 145.73258978 152.43125862 146.71875 172.92578125 C146.76441769 174.86690187 146.79571161 176.80841484 146.8125 178.75 C146.82273193 179.65685547 146.83296387 180.56371094 146.84350586 181.49804688 C146.67929608 194.09282203 141.98904808 205.28837729 133.4296875 214.52734375 C118.77304191 228.15300857 98.09733167 231.01552229 78.83129883 230.36157227 C69.23891533 229.847353 59.80685861 228.19149476 50.375 226.4375 C50.52066406 227.49066406 50.66632813 228.54382813 50.81640625 229.62890625 C51.15299726 232.21322141 51.38917518 234.75003397 51.50732422 237.35498047 C52.11439788 251.83852004 52.11439788 251.83852004 58.88525391 264.17236328 C65.13011846 269.20534109 72.03595437 272.98848618 79.12060547 276.69189453 C83.67633505 279.13551542 87.91371443 281.97555253 92.1875 284.875 C97.95978089 288.81357065 97.95978089 288.81357065 104.375 291.4375 C106.71783527 290.62842434 106.71783527 290.62842434 108.88671875 289 C109.72783203 288.43410156 110.56894531 287.86820312 111.43554688 287.28515625 C112.73588867 286.37056641 112.73588867 286.37056641 114.0625 285.4375 C115.77352772 284.26905674 117.48576743 283.1023863 119.19921875 281.9375 C120.04774414 281.3585498 120.89626953 280.77959961 121.77050781 280.18310547 C124.41340377 278.41176069 127.07528375 276.68756508 129.77734375 275.0078125 C130.5674585 274.51555176 131.35757324 274.02329102 132.17163086 273.51611328 C134.375 272.4375 134.375 272.4375 138.25 272.3125 C141.7112921 273.55856516 143.02732354 274.65114067 145.375 277.4375 C150.87595129 291.40672069 155.68638004 319.37373238 150.54296875 333.765625 C149.375 335.4375 149.375 335.4375 146.375 337.4375 C145.055 337.4375 143.735 337.4375 142.375 337.4375 C142.38660156 338.00597656 142.39820313 338.57445312 142.41015625 339.16015625 C142.46723194 344.04420484 142.19456772 348.62253965 141.375 353.4375 C142.550625 353.80875 142.550625 353.80875 143.75 354.1875 C146.80301888 355.64131851 147.19648706 356.36336011 148.375 359.4375 C147.11112852 397.98558026 120.23281201 436.89309461 93.55078125 462.609375 C82.64541362 472.79900573 70.45874127 481.29688188 57.375 488.4375 C56.43454834 488.95304443 56.43454834 488.95304443 55.47509766 489.47900391 C41.71563516 496.91909895 27.27227443 502.37249667 12.125 506.25 C11.37057617 506.44489014 10.61615234 506.63978027 9.83886719 506.84057617 C-3.7472191 510.12421803 -17.28263307 510.8452765 -31.1875 510.8125 C-32.02027466 510.81228851 -32.85304932 510.81207703 -33.71105957 510.81185913 C-47.05561466 510.7781317 -59.66028678 509.78787054 -72.625 506.4375 C-73.41696777 506.24494629 -74.20893555 506.05239258 -75.02490234 505.85400391 C-98.29635769 500.17027976 -120.50614344 489.93213525 -139.625 475.4375 C-140.44355469 474.8290625 -141.26210937 474.220625 -142.10546875 473.59375 C-152.70701414 465.43073299 -163.36426708 456.00187957 -171.625 445.4375 C-172.05345215 444.89432129 -172.4819043 444.35114258 -172.92333984 443.79150391 C-198.20647212 411.55698657 -211.9034696 374.41832126 -213.625 333.4375 C-213.66753906 332.48875 -213.71007812 331.54 -213.75390625 330.5625 C-214.07162552 315.98977608 -212.31986902 301.15649086 -209.875 286.8125 C-209.67632324 285.50744507 -209.67632324 285.50744507 -209.47363281 284.17602539 C-208.73088631 280.17841799 -207.93194891 277.19475613 -204.984375 274.2890625 C-201.50057436 272.36892122 -199.55455212 271.96401987 -195.64648438 272.75732422 C-192.14374007 273.93590461 -189.34734763 275.84104474 -186.375 278 C-185.73385254 278.44311523 -185.09270508 278.88623047 -184.43212891 279.34277344 C-181.88360559 281.10660156 -179.36072573 282.90344014 -176.85253906 284.72412109 C-175.24407942 285.89116136 -173.62234525 287.03984095 -172 288.1875 C-170.61941406 289.20070313 -170.61941406 289.20070313 -169.2109375 290.234375 C-166.71338557 291.71964163 -166.71338557 291.71964163 -164.2109375 290.875 C-163.35757813 290.400625 -162.50421875 289.92625 -161.625 289.4375 C-160.55765625 288.88578125 -159.4903125 288.3340625 -158.390625 287.765625 C-148.8359944 282.28286173 -143.68818167 276.11261667 -138.625 266.4375 C-138.26680176 265.76138672 -137.90860352 265.08527344 -137.53955078 264.38867188 C-135.42617473 260.3630147 -133.41039603 256.29940934 -131.46337891 252.19091797 C-130.72101861 250.63831703 -129.94677421 249.10104971 -129.16796875 247.56640625 C-127.85867474 245.00464166 -127.85867474 245.00464166 -126.625 241.4375 C-132.57668034 225.07833585 -154.52707692 213.27182467 -169.2578125 206.140625 C-177.54100804 202.29327772 -185.91187069 199.17657082 -194.68359375 196.640625 C-197.99664449 195.28548605 -199.06949623 194.63875861 -200.625 191.4375 C-201.03219482 188.75632282 -201.30964488 186.19455586 -201.5 183.5 C-202.96310738 168.2989476 -209.276214 156.021312 -220.234375 145.38671875 C-224.16006874 142.18586716 -228.48196836 139.70723852 -232.8671875 137.19921875 C-235.625 135.4375 -235.625 135.4375 -237.625 132.4375 C-237.94725064 125.67023657 -237.94725064 125.67023657 -237.1328125 122.5546875 C-233.99009212 109.45196099 -238.79549617 96.70454223 -245.35839844 85.53198242 C-250.97446497 76.38738362 -258.06593554 68.75498791 -265.72753906 61.31982422 C-270.5467106 56.63793753 -270.5467106 56.63793753 -270.8125 52.5625 C-270.62735491 49.47674846 -270.40340309 47.92726433 -268.625 45.4375 C-261.78425527 41.32075891 -253.05794541 43.61054949 -245.625 45 C-244.6858374 45.17418457 -243.7466748 45.34836914 -242.77905273 45.52783203 C-203.20288077 53.22383128 -167.98581717 69.73769412 -138.625 97.4375 C-137.44744141 98.51837891 -137.44744141 98.51837891 -136.24609375 99.62109375 C-126.71741282 108.69092969 -118.78918333 119.43165314 -111.625 130.4375 C-111.50495605 129.76396484 -111.38491211 129.09042969 -111.26123047 128.39648438 C-104.77902156 92.6132277 -104.77902156 92.6132277 -92.625 78.4375 C-92.05910156 77.77234375 -91.49320313 77.1071875 -90.91015625 76.421875 C-84.53792531 69.5248721 -76.4395876 65.37569587 -67.625 62.4375 C-72.75059875 48.37429941 -80.63885806 37.11598535 -90.4375 25.984375 C-93.53363721 22.37958668 -93.96145894 20.20277569 -93.91796875 15.41015625 C-93.625 13.4375 -93.625 13.4375 -91.75 11 C-86.28559822 6.98205752 -80.07872847 8.67459919 -73.625 9.4375 C-55.77725119 12.84548598 -40.88767674 26.01532928 -30.625 40.4375 C-23.32778897 51.56574683 -23.32778897 51.56574683 -21.91943359 55.31665039 C-21.02734097 57.44990339 -20.2854546 58.8146784 -18.625 60.4375 C-14.76823485 61.73946773 -10.91751972 62.05404843 -6.875 62.375 C-5.79605469 62.48650391 -4.71710938 62.59800781 -3.60546875 62.71289062 C-0.9467508 62.98346812 1.71120932 63.22377431 4.375 63.4375 C-0.79182126 45.10361812 -8.53628299 28.17100742 -22.4296875 14.72265625 C-25.79539814 11.219203 -25.625 9.23103728 -25.625 4.4375 C-21.30332415 -5.23482214 -8.6307529 -2.44207519 0 0 Z " fill="#010101" transform="translate(315.625,1.5625)"/>
<path d="M0 0 C1.83325195 0.97705078 1.83325195 0.97705078 3.73828125 2.1953125 C4.82713623 2.88669312 4.82713623 2.88669312 5.93798828 3.59204102 C6.72157715 4.09791748 7.50516602 4.60379395 8.3125 5.125 C9.13991699 5.65343506 9.96733398 6.18187012 10.81982422 6.72631836 C20.33850687 12.82198728 29.79350553 19.01682163 39.25244141 25.20458984 C43.43351225 27.93673797 47.62127283 30.65846387 51.8125 33.375 C52.51777832 33.83334229 53.22305664 34.29168457 53.94970703 34.76391602 C59.14583302 38.12906966 61.70117406 39.46343693 68 39 C71.16685423 37.66343819 71.16685423 37.66343819 74.3125 35.5625 C74.9307666 35.17562012 75.5490332 34.78874023 76.18603516 34.39013672 C78.47137924 32.9476453 80.73601105 31.47578865 83 30 C83.97598145 29.36723145 84.95196289 28.73446289 85.95751953 28.08251953 C91.52619463 24.46827195 97.08269323 20.83607901 102.62890625 17.1875 C108.0108789 13.64708718 113.40426899 10.12515578 118.8125 6.625 C119.81482666 5.9745874 119.81482666 5.9745874 120.83740234 5.31103516 C122.55392218 4.20060955 124.27666866 3.09982475 126 2 C126.87011719 1.36835938 127.74023438 0.73671875 128.63671875 0.0859375 C131 -1 131 -1 133.32592773 -0.26586914 C136.08778037 1.04155402 138.58091619 2.51154153 141.1484375 4.16796875 C142.63996338 5.1261853 142.63996338 5.1261853 144.16162109 6.10375977 C145.22203613 6.79139404 146.28245117 7.47902832 147.375 8.1875 C148.47537598 8.89640381 149.57575195 9.60530762 150.70947266 10.33569336 C159.20250559 15.81039927 167.66963547 21.32567381 176.12255859 26.86206055 C177.86811178 28.00491721 179.617225 29.14235773 181.37011719 30.27392578 C183.20915743 31.48094533 185.0261214 32.72197377 186.82519531 33.98779297 C193.28330624 38.62804896 193.28330624 38.62804896 200.89160156 39.68359375 C205.87355858 38.06832283 210.09246765 34.93821425 214.375 32 C216.33881511 30.68401523 218.30484782 29.37133167 220.2734375 28.0625 C221.56386963 27.18271484 221.56386963 27.18271484 222.88037109 26.28515625 C225 25 225 25 227 25 C228.63335302 33.69007238 229.33041401 42.19059027 229.57006836 51.01855469 C229.73130642 55.65380634 229.99961655 59.72401257 232 64 C235.01779872 65.45160938 235.01779872 65.45160938 238 66 C238.11138159 71.45769811 237.91657981 76.61509359 237 82 C235.906875 82.2475 234.81375 82.495 233.6875 82.75 C229.73169423 84.09095111 229.08606712 84.59430616 227 88 C226.14149111 90.27868177 226.14149111 90.27868177 225.5703125 92.74609375 C225.21767334 94.11580322 225.21767334 94.11580322 224.85791016 95.51318359 C224.6160498 96.47820801 224.37418945 97.44323242 224.125 98.4375 C217.14871144 124.96977572 204.7226208 148.87274369 186 169 C185.23647217 169.82927002 185.23647217 169.82927002 184.45751953 170.67529297 C168.27639707 188.08187122 148.6515853 200.46496466 127 210 C125.94425781 210.474375 124.88851562 210.94875 123.80078125 211.4375 C113.62775041 215.69288545 102.7838481 217.86719029 92 220 C91.04802734 220.19053955 90.09605469 220.3810791 89.11523438 220.57739258 C81.58669448 221.96883251 74.27276322 222.34950271 66.625 222.3125 C65.4083667 222.30758545 64.1917334 222.3026709 62.93823242 222.29760742 C45.65467021 222.0770817 29.34031709 219.62122889 13 214 C12.33838867 213.77973145 11.67677734 213.55946289 10.99511719 213.33251953 C-18.57244687 203.40698669 -46.22552615 183.97645444 -65 159 C-65.39783691 158.47712402 -65.79567383 157.95424805 -66.20556641 157.41552734 C-86.43640944 130.68050379 -99.05284648 98.6949863 -100 65 C-100.02191406 64.30567871 -100.04382813 63.61135742 -100.06640625 62.89599609 C-100.41574068 50.17148942 -99.33908396 37.64650838 -98 25 C-94.57628901 25.62943011 -92.34846847 26.94667686 -89.515625 28.94140625 C-88.66226563 29.52470703 -87.80890625 30.10800781 -86.9296875 30.70898438 C-85.15194236 31.93863462 -83.38098484 33.17815985 -81.6171875 34.42773438 C-76.10752074 38.16289134 -72.68419896 40.16425597 -66 39 C-63.32402041 37.70583083 -61.16315697 36.47667035 -58.75 34.8125 C-58.07380615 34.3683374 -57.3976123 33.9241748 -56.70092773 33.46655273 C-55.23374728 32.50132427 -53.77157718 31.52844579 -52.31396484 30.54882812 C-49.09947089 28.39724027 -45.84869996 26.30330764 -42.59985352 24.20410156 C-40.05718393 22.55906064 -37.52006236 20.90577967 -34.984375 19.25 C-31.74941505 17.13860423 -28.51043443 15.03372835 -25.265625 12.9375 C-24.51877441 12.45498779 -23.77192383 11.97247559 -23.00244141 11.4753418 C-21.56552417 10.54831392 -20.12772681 9.62264856 -18.68896484 8.69848633 C-14.28832876 5.86465497 -9.97390828 2.93813918 -5.76171875 -0.171875 C-3.40746701 -1.27852992 -2.44528853 -0.79335528 0 0 Z " fill="#E5E5E5" transform="translate(220,273)"/>
<path d="M0 0 C17.92181794 9.60433676 28.72897698 37.76528425 34.56665039 56.34985352 C36.00227981 60.78142533 37.10024078 64.13094637 41 67 C43.95691709 67.75015195 43.95691709 67.75015195 47 67 C50.08333333 65.08333333 50.08333333 65.08333333 52 62 C52 56.87683468 50.19319127 52.07854152 48.62109375 47.234375 C48 45 48 45 48 42 C62.6968572 43.99833867 76.96353964 46.13286823 91 51 C92.25925293 51.42539063 92.25925293 51.42539063 93.54394531 51.859375 C108.47241145 56.93043367 123.58741607 62.58061563 137 71 C135.9008948 73.5645788 135.02726476 74.97674476 132.875 76.8125 C130.68442586 78.97203773 130.68442586 78.97203773 130.5 82.5 C130.742189 85.99305422 130.742189 85.99305422 132.625 88.4375 C135.83931815 90.55218299 137.18694824 90.64749935 141 90 C142.52312506 89.20972506 144.02206069 88.37185999 145.5 87.5 C151.69506031 83.90086646 151.69506031 83.90086646 156 85 C158.94273915 87.06476142 161.44757168 89.47736657 164 92 C164.60070312 92.55171875 165.20140625 93.1034375 165.8203125 93.671875 C174.47735635 101.82424813 180.35551492 112.1440455 185 123 C185 123.99 185 124.98 185 126 C184.236875 126.2475 183.47375 126.495 182.6875 126.75 C179.65581915 128.16008412 178.49186812 129.01626376 177 132 C177.07486128 135.59334155 177.57601387 137.43973262 179.75 140.3125 C182.2252397 142.16892978 183.95281822 142.66142425 187 143 C187.48037281 149.60512616 186.37972077 154.27203168 183 160 C180.5625 162.8125 180.5625 162.8125 178 165 C177.278125 165.680625 176.55625 166.36125 175.8125 167.0625 C160.38079879 177.6932275 138.26162377 176.48407501 120.52661133 173.54882812 C86.81833002 167.30162819 51.84752951 152.31526334 23.5625 133 C19.65810293 130.52404089 15.62994213 129.40083102 11 130 C8.16666667 131.83333333 8.16666667 131.83333333 7 135 C6.35292187 138.48804446 6.35292187 138.48804446 8 142 C14.14195589 147.28531467 21.50865336 151.13720716 28.625 154.9375 C29.58575439 155.45473633 30.54650879 155.97197266 31.53637695 156.50488281 C34.35213412 158.01381879 37.17401112 159.51032744 40 161 C40.74652832 161.39396973 41.49305664 161.78793945 42.26220703 162.19384766 C49.92739388 166.20773086 57.72181691 169.81038391 65.6875 173.1875 C66.48913574 173.5378833 67.29077148 173.8882666 68.11669922 174.24926758 C71.75868851 175.80749999 74.96718618 176.99379377 78.8828125 177.734375 C82.9782591 178.5739882 84.92763434 179.11078579 88 182 C92.33084476 191.96496186 93.58138369 203.29869871 95 214 C94.45214844 214.24492187 93.90429688 214.48984375 93.33984375 214.7421875 C87.40565463 217.54042302 81.99460477 220.89509104 76.58129883 224.57397461 C70.33487208 228.80970641 63.98826713 232.87986811 57.625 236.9375 C47.72578952 243.25479851 37.84939663 249.60534359 28 256 C19.56848593 251.19710728 11.40835301 246.10000142 3.3125 240.75 C2.17082508 239.99920951 1.02889469 239.24880736 -0.11328125 238.4987793 C-2.36965132 237.016967 -4.62525567 235.53401704 -6.88037109 234.05029297 C-12.99913014 230.02890163 -19.13397711 226.03338086 -25.30322266 222.08984375 C-26.89006996 221.0706083 -28.46692348 220.03586031 -30.04296875 219 C-30.91566406 218.443125 -31.78835937 217.88625 -32.6875 217.3125 C-33.74517578 216.62607422 -33.74517578 216.62607422 -34.82421875 215.92578125 C-37.81038243 214.65518737 -39.77412854 214.59324218 -43 215 C-46.28241829 216.70645719 -46.28241829 216.70645719 -49.375 219 C-50.43460938 219.7425 -51.49421875 220.485 -52.5859375 221.25 C-53.38257813 221.8275 -54.17921875 222.405 -55 223 C-56 221 -56 221 -55.36669922 218.91552734 C-55.01623535 218.0642627 -54.66577148 217.21299805 -54.3046875 216.3359375 C-53.92078857 215.38710693 -53.53688965 214.43827637 -53.14135742 213.46069336 C-52.72345947 212.44241455 -52.30556152 211.42413574 -51.875 210.375 C-45.24197317 193.74696614 -40.77317612 177.68996227 -38 160 C-37.73546021 158.42448364 -37.73546021 158.42448364 -37.46557617 156.81713867 C-36.90161712 152.19338419 -36.80762795 147.6456324 -36.75390625 142.9921875 C-36.72090898 141.01431947 -36.68769852 139.03645499 -36.65429688 137.05859375 C-36.60745152 133.99010181 -36.56310635 130.92161749 -36.52319336 127.85302734 C-35.7131075 68.29473895 -35.7131075 68.29473895 -19.625 50.9375 C-14.78481483 46.6326852 -9.5693894 43 -3 43 C-2.97296619 44.93742341 -2.95358875 46.87495479 -2.9375 48.8125 C-2.92589844 49.89144531 -2.91429687 50.97039062 -2.90234375 52.08203125 C-3 55 -3 55 -4 58 C-4.59891207 63.92121484 -4.59891207 63.92121484 -1.9375 69.0625 C0.91801692 71.32259009 0.91801692 71.32259009 4.625 71.0625 C7.91970508 70.25823711 7.91970508 70.25823711 9.8125 68.5 C17.02977009 53.30574719 13.27183454 34.13678431 8 19 C6.20760604 14.23388659 4.1355775 9.62186568 2 5 C1.32208755 3.33787578 0.65120665 1.6727678 0 0 Z " fill="#55D152" transform="translate(257,39)"/>
<path d="M0 0 C2.01464844 1.12329102 2.01464844 1.12329102 4.109375 2.50390625 C5.24052734 3.24350586 5.24052734 3.24350586 6.39453125 3.99804688 C7.17183594 4.51431641 7.94914062 5.03058594 8.75 5.5625 C9.54277344 6.08263672 10.33554688 6.60277344 11.15234375 7.13867188 C13.1049282 8.42079058 15.05393387 9.70801774 17 11 C16.75878418 11.84872681 16.75878418 11.84872681 16.51269531 12.71459961 C7.22576953 45.78519658 3.34582121 78.83980519 8 113 C8.09120117 113.68578125 8.18240234 114.3715625 8.27636719 115.078125 C10.78919601 132.99415369 17.0886623 150.30151587 26 166 C26.38559082 166.67933594 26.77118164 167.35867188 27.16845703 168.05859375 C32.56547694 177.4113963 38.50044352 185.21149389 46 193 C46.98912079 194.20019868 47.96966083 195.40757479 48.9375 196.625 C55.42847459 204.2614407 64.25640734 210.0252933 72.2734375 215.95703125 C74.89343651 217.92015372 77.45503355 219.94089078 80 222 C56.79819782 222.49729077 35.06197572 221.58953541 13 214 C12.33838867 213.77973145 11.67677734 213.55946289 10.99511719 213.33251953 C-18.57244687 203.40698669 -46.22552615 183.97645444 -65 159 C-65.39783691 158.47712402 -65.79567383 157.95424805 -66.20556641 157.41552734 C-86.43640944 130.68050379 -99.05284648 98.6949863 -100 65 C-100.02191406 64.30567871 -100.04382813 63.61135742 -100.06640625 62.89599609 C-100.41574068 50.17148942 -99.33908396 37.64650838 -98 25 C-94.57628901 25.62943011 -92.34846847 26.94667686 -89.515625 28.94140625 C-88.66226563 29.52470703 -87.80890625 30.10800781 -86.9296875 30.70898438 C-85.15194236 31.93863462 -83.38098484 33.17815985 -81.6171875 34.42773438 C-76.10752074 38.16289134 -72.68419896 40.16425597 -66 39 C-63.32402041 37.70583083 -61.16315697 36.47667035 -58.75 34.8125 C-58.07380615 34.3683374 -57.3976123 33.9241748 -56.70092773 33.46655273 C-55.23374728 32.50132427 -53.77157718 31.52844579 -52.31396484 30.54882812 C-49.09947089 28.39724027 -45.84869996 26.30330764 -42.59985352 24.20410156 C-40.05718393 22.55906064 -37.52006236 20.90577967 -34.984375 19.25 C-31.74941505 17.13860423 -28.51043443 15.03372835 -25.265625 12.9375 C-24.51877441 12.45498779 -23.77192383 11.97247559 -23.00244141 11.4753418 C-21.56552417 10.54831392 -20.12772681 9.62264856 -18.68896484 8.69848633 C-14.28832876 5.86465497 -9.97390828 2.93813918 -5.76171875 -0.171875 C-3.39790567 -1.28302438 -2.45580677 -0.81022352 0 0 Z " fill="#CBCBCB" transform="translate(220,273)"/>
<path d="M0 0 C12.76547642 6.8410434 20.02335758 22.86761915 26.375 35.375 C26.70894775 36.02879639 27.04289551 36.68259277 27.38696289 37.35620117 C28.30870446 39.21841793 29.16061514 41.09948688 30 43 C30.79277344 44.68996094 30.79277344 44.68996094 31.6015625 46.4140625 C32.13227731 51.19049576 30.53577332 52.81319055 27.75 56.55419922 C24.74774354 60.75015418 22.68767565 65.40489318 20.5 70.0625 C20.02079102 71.07908691 19.54158203 72.09567383 19.04785156 73.14306641 C-4.53338812 123.75548274 -9.20242802 181.00883016 -3 236 C-10.44235454 231.81454177 -17.60774289 227.36310669 -24.65844727 222.55322266 C-26.4282584 221.35156726 -28.20927339 220.17023167 -30 219 C-30.59216309 218.60731934 -31.18432617 218.21463867 -31.79443359 217.81005859 C-35.69784106 215.37377547 -38.42241264 214.22700372 -43 215 C-46.28241829 216.70645719 -46.28241829 216.70645719 -49.375 219 C-50.43460938 219.7425 -51.49421875 220.485 -52.5859375 221.25 C-53.38257813 221.8275 -54.17921875 222.405 -55 223 C-56 221 -56 221 -55.36669922 218.91552734 C-55.01623535 218.0642627 -54.66577148 217.21299805 -54.3046875 216.3359375 C-53.92078857 215.38710693 -53.53688965 214.43827637 -53.14135742 213.46069336 C-52.72345947 212.44241455 -52.30556152 211.42413574 -51.875 210.375 C-45.24197317 193.74696614 -40.77317612 177.68996227 -38 160 C-37.73546021 158.42448364 -37.73546021 158.42448364 -37.46557617 156.81713867 C-36.90161712 152.19338419 -36.80762795 147.6456324 -36.75390625 142.9921875 C-36.72090898 141.01431947 -36.68769852 139.03645499 -36.65429688 137.05859375 C-36.60745152 133.99010181 -36.56310635 130.92161749 -36.52319336 127.85302734 C-35.7131075 68.29473895 -35.7131075 68.29473895 -19.625 50.9375 C-14.78481483 46.6326852 -9.5693894 43 -3 43 C-2.97296619 44.93742341 -2.95358875 46.87495479 -2.9375 48.8125 C-2.92589844 49.89144531 -2.91429687 50.97039062 -2.90234375 52.08203125 C-3 55 -3 55 -4 58 C-4.59891207 63.92121484 -4.59891207 63.92121484 -1.9375 69.0625 C0.91801692 71.32259009 0.91801692 71.32259009 4.625 71.0625 C7.91970508 70.25823711 7.91970508 70.25823711 9.8125 68.5 C17.02977009 53.30574719 13.27183454 34.13678431 8 19 C6.20760604 14.23388659 4.1355775 9.62186568 2 5 C1.32208755 3.33787578 0.65120665 1.6727678 0 0 Z " fill="#45B842" transform="translate(257,39)"/>
<path d="M0 0 C25.4097355 3.48522688 50.84996383 16.59078522 71 32 C71.93328125 32.70769531 72.8665625 33.41539063 73.828125 34.14453125 C94.4436861 50.38983451 117.60668702 75.7228971 124 102 C123.67 102.66 123.34 103.32 123 104 C122.35998047 103.41605469 122.35998047 103.41605469 121.70703125 102.8203125 C100.83587546 84.08573965 100.83587546 84.08573965 75.625 73.375 C72.82562095 73.8327616 72.82562095 73.8327616 70.5625 76.0625 C68.78004662 78.95564085 68.78004662 78.95564085 68.6875 82.4375 C70.63964213 87.7361715 74.21662415 89.3120607 79 92 C94.42928924 100.94597226 109.67284349 112.09373709 121 126 C121.66 126.66 122.32 127.32 123 128 C123.23788443 136.96031357 121.80816486 145.50485978 119 154 C116 154 116 154 114.4140625 152.6015625 C113.82367188 151.94929687 113.23328125 151.29703125 112.625 150.625 C98.10819661 135.66030975 78.65509452 124.45165519 58.76879883 118.31103516 C56.578125 117.60546875 56.578125 117.60546875 53 116 C51.95703125 113.828125 51.95703125 113.828125 51.8125 111.25 C50.51999312 100.14619089 46.85447733 90.356424 40.453125 81.171875 C39 79 39 79 38 76 C39.77111844 76.47811177 41.54188483 76.9575278 43.3125 77.4375 C44.29863281 77.70433594 45.28476563 77.97117187 46.30078125 78.24609375 C48.21517526 78.78079425 50.11433615 79.37144538 52 80 C56.06367281 80.376266 58.33451122 80.36814273 61.9375 78.375 C64.21909644 76.13485542 64.21909644 76.13485542 64.625 73.0625 C63.98934164 69.94777403 63.25389277 68.25684747 60.85229492 66.1472168 C53.03522178 61.30572125 42.83374251 59.96625458 33.9375 58.3125 C31.73798409 57.89348394 29.53875057 57.47298201 27.33984375 57.05078125 C26.38456787 56.87200439 25.42929199 56.69322754 24.44506836 56.5090332 C22 56 22 56 19 55 C18.91866821 54.0884314 18.91866821 54.0884314 18.83569336 53.15844727 C17.0512301 34.34449852 13.11648727 19.63952142 1.72265625 4.44140625 C0 2 0 2 0 0 Z " fill="#F1506B" transform="translate(79,67)"/>
<path d="M0 0 C5.28876582 3.8626879 5.28876582 3.8626879 6.625 6.53515625 C6.90895581 9.46936631 7.12048029 11.68614459 6.625 14.53515625 C4.09882787 17.50712347 2.51994501 18.38282518 -1.3125 19.03515625 C-4.375 18.53515625 -4.375 18.53515625 -7.0625 16.53515625 C-11.77568674 13.6894586 -15.99102504 13.69818555 -21.375 14.53515625 C-24.64810553 16.43872612 -24.64810553 16.43872612 -27.375 18.53515625 C-30.4375 19.09765625 -30.4375 19.09765625 -33.375 18.53515625 C-37.01025215 15.92725797 -38.20897068 14.46492045 -39 10.03515625 C-38.01092443 4.49633305 -34.78345902 2.58400871 -30.4375 -0.65234375 C-20.79743485 -6.35768843 -9.55614165 -5.89400184 0 0 Z " fill="#010401" transform="translate(355.375,111.46484375)"/>
<path d="M0 0 C15.1692746 12.3830813 24.5348275 29.10860893 32 47 C32 47.66 32 48.32 32 49 C29.35307023 48.35841048 26.70750071 47.71195217 24.0625 47.0625 C23.30775391 46.88009766 22.55300781 46.69769531 21.77539062 46.50976562 C16.11328125 45.11328125 16.11328125 45.11328125 15 44 C14.57917695 41.81716967 14.18944229 39.62833427 13.8125 37.4375 C11.57172271 25.51166536 7.2605643 14.49357325 1.1015625 4.0390625 C0 2 0 2 0 0 Z " fill="#43B240" transform="translate(324,26)"/>
<path d="M0 0 C2.9375 1.5 2.9375 1.5 5 4 C5.9352036 8.00332769 5.61385602 10.97690664 3.5 14.5 C-0.03588973 16.62153384 -2.97901723 16.791013 -7 16 C-9.5 14.5 -9.5 14.5 -11 12 C-11.79669284 7.95014472 -11.64099302 5.02558884 -9.4375 1.5 C-6.03618625 -0.59311615 -3.92927257 -0.55147685 0 0 Z " fill="#010201" transform="translate(414,172)"/>
</svg>
